<?xml version="1.0" standalone="no"?>
<!DOCTYPE svg PUBLIC "-//W3C//DTD SVG 20010904//EN"
 "http://www.w3.org/TR/2001/REC-SVG-20010904/DTD/svg10.dtd">
<svg version="1.0" xmlns="http://www.w3.org/2000/svg"
 width="640.000000pt" height="640.000000pt" viewBox="0 0 640.000000 640.000000"
 preserveAspectRatio="xMidYMid meet">

<g transform="translate(0.000000,640.000000) scale(0.100000,-0.100000)"
fill="#000000" stroke="none">
<path d="M2955 5034 c-406 -55 -779 -245 -1071 -546 -181 -187 -367 -478 -305
-478 4 0 17 21 30 48 13 26 51 90 85 142 337 514 905 820 1524 820 152 0 350
-29 491 -71 75 -23 81 -23 81 -5 0 21 -205 73 -373 96 -105 14 -339 11 -462
-6z"/>
<path d="M4733 4202 c-8 -5 -4 -19 13 -47 45 -72 131 -248 158 -323 65 -181
96 -351 103 -562 7 -200 -6 -327 -52 -505 -85 -328 -250 -612 -494 -849 -73
-70 -94 -106 -63 -106 19 0 240 240 302 328 429 609 463 1367 92 2010 -38 65
-40 66 -59 54z"/>
<path d="M2605 3480 c-60 -22 -251 -88 -422 -146 l-313 -107 37 -69 c132 -252
477 -311 694 -119 95 83 149 205 149 334 0 72 -15 147 -28 146 -4 0 -56 -18
-117 -39z"/>
<path d="M3653 2875 c-76 -21 -122 -47 -169 -97 -52 -54 -81 -111 -91 -180
-25 -160 46 -302 185 -370 61 -30 74 -33 157 -32 75 0 100 5 147 26 68 31 136
99 168 165 34 71 39 199 11 273 -61 161 -248 259 -408 215z"/>
</g>
</svg>
