<svg xmlns="http://www.w3.org/2000/svg" viewBox="0 0 212 32"><defs><style>.a{fill:#fc2260;fill-rule:evenodd;}</style></defs><title>dblogowhite black</title><path d="M203.23,6a2.28,2.28,0,1,1,2.27-2.29v0A2.29,2.29,0,0,1,203.23,6Zm0-4.18a1.91,1.91,0,1,0,1.9,1.92h0a1.92,1.92,0,0,0-1.9-2h0Z"/><path d="M204.28,4.94h-.4l-.49-.69a.66.66,0,0,0-.12-.17L203.14,4a.14.14,0,0,1-.12-.08c0-.08-.12,0-.16,0h-.28v1h-.33V2.46h.85a1.15,1.15,0,0,1,.37,0,1.39,1.39,0,0,1,.28.12l.21.2a1,1,0,0,1,.08.29.49.49,0,0,1,0,.24c0,.08-.08.12-.12.21a.83.83,0,0,1-.21.16.68.68,0,0,1-.24.08h0a.14.14,0,0,1,.12.08c0,.08.08,0,.12.08s.08.08.08.12l.13.13Zm-1.7-2.24v.9H203a.53.53,0,0,0,.25,0c.08,0,.12-.09.2-.09a.61.61,0,0,0,.12-.16.34.34,0,0,0,0-.2.42.42,0,0,0-.16-.33A.71.71,0,0,0,203,2.7h-.38Z"/><path class="a" d="M31.24,5.34v10h0v.48a10.16,10.16,0,0,1-20.31.64c0-.22,0-.43,0-.64V5.34a14.59,14.59,0,1,0,20.63.32C31.46,5.55,31.35,5.45,31.24,5.34Zm-4,2.36V2.58A14.7,14.7,0,0,0,15,2.58V7.7a10.13,10.13,0,0,1,12.27,0Z"/><path class="a" d="M27.42,15.82a6.18,6.18,0,1,1-6.19-6.17h0A6.17,6.17,0,0,1,27.42,15.82Z"/><path d="M118.9,9.57A5.49,5.49,0,0,0,115,11V1.4h-3V23.79h2.8V22.73a6,6,0,0,0,4.2,1.54c4.1,0,7-3,7-7.35S123,9.57,118.9,9.57Zm0,12.14c-2,0-4.15-1.5-4.15-4.79,0-2.76,1.63-4.79,3.9-4.79,3.09,0,4.19,2.6,4.19,4.79.08,2.92-1.51,4.79-3.9,4.79Z"/><path d="M139.21,10.06v8c0,4-2.11,6.25-5.81,6.25S127.59,22,127.59,18V10h2.92v8.16c0,3.45,2.16,3.45,2.89,3.45s2.88,0,2.88-3.45v-8.1Z"/><path d="M151.8,1.4V11A5.36,5.36,0,0,0,148,9.53a7,7,0,0,0-7.16,6.84c0,.18,0,.37,0,.55a6.94,6.94,0,0,0,6.52,7.34,5.76,5.76,0,0,0,.59,0,5.86,5.86,0,0,0,4-1.54v1h2.8V1.4Zm-3.9,20.31c-2.8,0-4.06-2.47-4.06-4.79,0-1.91,1.09-4.79,4.14-4.79,2.28,0,3.94,2,3.94,4.79s-1.62,4.79-4,4.79Z"/><path d="M167.44,1.4V11a5.44,5.44,0,0,0-3.86-1.42,7,7,0,0,0-7.16,6.84c0,.18,0,.37,0,.55A6.94,6.94,0,0,0,163,24.31a5.76,5.76,0,0,0,.59,0,6,6,0,0,0,4-1.54v1h2.8V1.4Zm-3.9,20.31c-2.8,0-4.06-2.47-4.06-4.79,0-1.91,1.09-4.79,4.14-4.79,2.27,0,3.94,2,3.94,4.79s-1.62,4.79-4,4.79Z"/><path d="M184.26,15.17v8.62h-2.93V15.42c0-2.36-.61-3.25-2.23-3.25-2,0-3.42,1.91-3.42,4.55v7.11h-2.92V1.4h2.92V11a5.12,5.12,0,0,1,3.62-1.42C182.39,9.57,184.26,11.64,184.26,15.17Z"/><path d="M197,10.06v1a5.56,5.56,0,0,0-4-1.54,7,7,0,0,0-7.16,6.84c0,.18,0,.37,0,.55a7,7,0,0,0,6.63,7.35H193a6,6,0,0,0,4-1.54v1h2.8V10.06Zm-4,11.65c-2.68,0-4.06-2.39-4.06-4.79,0-2.76,1.74-4.79,4.14-4.79,2.6,0,3.94,2.39,3.94,4.79C197,19.8,195.39,21.71,193,21.71Z"/><path d="M53.5,1.4V11a5.44,5.44,0,0,0-3.82-1.42,7,7,0,0,0-7.16,6.84c0,.18,0,.37,0,.55a6.94,6.94,0,0,0,6.52,7.34,5.76,5.76,0,0,0,.59,0,6,6,0,0,0,4-1.54v1h2.8V1.4ZM49.6,21.71c-2.8,0-4.06-2.47-4.06-4.79,0-1.91,1.09-4.79,4.14-4.79,2.27,0,3.94,2,3.94,4.79S52,21.71,49.6,21.71Z"/><path d="M62.23,6.44a1.91,1.91,0,1,1-1.91-1.91h0a1.85,1.85,0,0,1,1.91,1.79Z"/><rect x="58.86" y="10.06" width="2.92" height="13.69"/><path d="M74.5,10.06v1a5.54,5.54,0,0,0-3.94-1.5A7,7,0,0,0,63.4,16.4c0,.18,0,.37,0,.55a7,7,0,0,0,6.64,7.34h.47a5.76,5.76,0,0,0,3.9-1.42c0,3.21-1.3,4.79-3.9,4.79-.69,0-3-.16-3.54-2.27L66.86,25H63.73l.21.73c.4,1.71,1.83,4.55,6.58,4.55,4.18,0,6.78-2.84,6.78-7.47V10.06Zm-4,11.65c-2.68,0-4.06-2.39-4.06-4.79,0-1.91,1.09-4.79,4.14-4.79,2.6,0,3.94,2.39,3.94,4.79,0,2.88-1.65,4.79-4,4.79Z"/><rect x="79.74" y="10.06" width="2.92" height="13.69"/><path d="M83.11,6.44A1.91,1.91,0,1,1,81.2,4.53a1.88,1.88,0,0,1,1.91,1.85Z"/><polygon points="90.87 10.05 90.87 12.65 88.47 12.65 88.47 23.79 85.55 23.79 85.55 12.65 83.52 12.65 83.52 10.05 85.55 10.05 85.55 5.22 88.47 5.22 88.47 10.05 90.87 10.05"/><path d="M101.76,10.06v1a5.62,5.62,0,0,0-4-1.54,7,7,0,0,0-7.15,6.85c0,.18,0,.36,0,.54a7,7,0,0,0,6.64,7.34h.46a6,6,0,0,0,4-1.54v1h2.8V10.06Zm-4,11.65c-2.68,0-4.06-2.39-4.06-4.79,0-2.76,1.75-4.79,4.15-4.79,2.6,0,3.94,2.39,3.94,4.79,0,2.88-1.62,4.79-4,4.79Z"/><rect x="106.95" y="1.4" width="2.92" height="22.38"/></svg>